<?xml version="1.0" standalone="no"?>
<!DOCTYPE svg PUBLIC "-//W3C//DTD SVG 20010904//EN"
 "http://www.w3.org/TR/2001/REC-SVG-20010904/DTD/svg10.dtd">
<svg version="1.0" xmlns="http://www.w3.org/2000/svg"
 width="600.000000pt" height="531.000000pt" viewBox="0 0 600.000000 531.000000"
 preserveAspectRatio="xMidYMid meet">

<g transform="translate(0.000000,531.000000) scale(0.100000,-0.100000)"
fill="#000000" stroke="none">
<path d="M4862 5025 c-284 -62 -672 -422 -968 -900 -139 -224 -284 -504 -402
-778 -10 -24 -60 -52 -324 -182 -172 -85 -314 -153 -315 -151 -2 2 10 70 26
152 54 270 65 374 65 584 0 163 -3 211 -21 292 -69 305 -233 525 -473 630
-131 58 -212 73 -400 73 -147 0 -192 -4 -280 -23 -264 -59 -523 -192 -762
-391 -421 -352 -728 -885 -732 -1271 -1 -87 3 -112 19 -144 30 -60 49 -60 38
0 -47 276 101 661 390 1019 91 113 295 309 407 392 197 146 404 249 598 300
132 34 346 43 453 19 334 -75 496 -391 476 -931 -9 -229 -33 -372 -114 -682
l-48 -182 -230 -107 c-874 -403 -1347 -736 -1505 -1059 -64 -129 -73 -253 -25
-345 27 -51 111 -117 183 -142 97 -33 268 -31 402 4 264 71 499 216 746 463
284 284 499 627 683 1090 35 89 68 155 79 163 24 15 387 187 515 242 48 21 87
35 87 30 0 -5 -24 -91 -54 -192 -98 -335 -174 -702 -208 -1003 -20 -181 -17
-612 5 -751 53 -330 151 -548 327 -724 287 -287 671 -325 1115 -110 188 91
361 218 532 392 123 125 174 187 270 330 256 384 360 816 288 1197 -78 409
-353 651 -741 651 -121 0 -203 -14 -264 -45 -58 -29 -72 -46 -68 -82 7 -61
123 -80 283 -47 107 22 224 16 290 -16 28 -13 81 -55 120 -94 85 -85 142 -193
182 -342 25 -92 27 -113 27 -309 0 -231 -12 -316 -74 -507 -149 -454 -523
-856 -983 -1053 -292 -126 -526 -131 -703 -17 -299 193 -390 762 -248 1542 69
380 194 809 361 1247 l86 223 205 138 c333 223 526 374 691 542 123 125 202
233 261 355 58 120 70 169 70 275 0 132 -46 203 -152 235 -62 18 -102 18 -186
0z m187 -101 c72 -51 65 -188 -19 -353 -107 -212 -354 -477 -663 -713 -130
-99 -305 -213 -314 -204 -8 8 42 145 99 271 106 231 249 477 387 665 68 92
198 229 263 277 92 67 197 91 247 57z m-2599 -2193 c0 -11 -81 -200 -137 -321
-150 -322 -399 -671 -618 -863 -317 -280 -656 -374 -824 -230 -103 88 -93 269
24 448 59 89 234 261 370 361 264 195 760 461 1095 585 84 31 90 33 90 20z"/>
</g>
</svg>
